<?xml version="1.0" encoding="UTF-8"?>
<svg width="1805px" height="250px" viewBox="0 0 1805 250" version="1.1" xmlns="http://www.w3.org/2000/svg" xmlns:xlink="http://www.w3.org/1999/xlink">
    <!-- Generator: Sketch 53.2 (72643) - https://sketchapp.com -->
    <title>Incoherent</title>
    <desc>Created with Sketch.</desc>
    <g id="Page-1" stroke="none" stroke-width="1" fill="none" fill-rule="evenodd">
        <g id="Desktop" transform="translate(-126.000000, -72.000000)" fill="#000000" fill-rule="nonzero">
            <path d="M185.444145,72.7927326 L185.444145,318.322617 L126.099764,318.322617 L126.099764,72.7927326 L185.444145,72.7927326 Z M281.234461,213.301045 L281.234461,318.322617 L222.609405,318.322617 L222.609405,134.175204 L278.357157,134.175204 L278.357157,167.983518 L280.395247,167.983518 C288.547607,145.564529 309.168281,131.777451 336.382775,131.777451 C375.106482,131.777451 400.402774,159.471495 400.282886,200.952618 L400.28331,318.322617 L341.657831,318.322617 L341.657831,212.461832 C341.777718,192.080933 330.748056,179.852394 312.165472,179.852394 C293.582888,179.852394 281.354348,192.320708 281.234461,213.301045 Z M522.688369,321.799358 C464.422977,321.799358 429.655562,283.075651 429.655562,226.848348 C429.655562,170.381271 464.662752,131.777451 522.568482,131.777451 C573.760504,131.777451 606.849492,161.26981 608.168256,206.587337 L553.379605,206.587337 C551.10174,187.764978 540.191965,176.375652 523.407695,176.375652 C502.906909,176.375652 489.359606,193.75936 489.359606,226.24891 C489.359606,258.978236 502.787021,276.361943 523.407695,276.361943 C539.472639,276.361943 551.221628,265.691943 553.379605,246.150258 L608.168256,246.150258 C606.609717,291.707561 574.479829,321.799358 522.688369,321.799358 Z M724.219682,321.799358 C666.313953,321.799358 631.186875,283.555202 631.186875,226.848348 C631.186875,170.021608 666.313953,131.777451 724.219682,131.777451 C782.125412,131.777451 817.25249,170.021608 817.25249,226.848348 C817.25249,283.555202 782.125412,321.799358 724.219682,321.799358 Z M724.579345,277.56082 C745.559682,277.56082 757.548446,256.940146 757.548446,226.488685 C757.548446,195.917338 745.559682,175.176776 724.579345,175.176776 C702.879683,175.176776 690.890919,195.917338 690.890919,226.488685 C690.890919,256.940146 702.879683,277.56082 724.579345,277.56082 Z M905.969542,213.301045 L905.969542,318.322617 L847.344487,318.322617 L847.344487,72.7927326 L904.05134,72.7927326 L904.05134,167.983518 L906.08943,167.983518 C914.361677,145.324754 933.783474,131.777451 961.357631,131.777451 C1000.08134,131.777451 1025.49752,159.23172 1025.37763,200.952618 L1025.37805,318.322617 L966.752575,318.322617 L966.752575,212.461832 C966.872463,191.961046 955.962688,179.852394 937.140328,179.852394 C918.557744,179.852394 906.08943,192.320708 905.969542,213.301045 Z M1147.903,321.799358 C1089.99727,321.799358 1054.75031,285.952954 1054.75031,226.968236 C1054.75031,169.90172 1090.47682,131.777451 1146.10469,131.777451 C1198.3757,131.777451 1235.30109,165.106214 1235.30109,225.76936 L1235.30109,240.395652 L1112.53615,240.395652 L1112.53615,241.954191 C1112.53615,264.493067 1126.44311,279.479022 1148.98199,279.479022 C1164.32761,279.479022 1176.31637,272.885202 1180.8721,260.656663 L1234.70165,262.215202 C1227.98794,298.421269 1196.21772,321.799358 1147.903,321.799358 Z M1112.53615,206.347562 L1180.75221,206.347562 C1180.51244,187.525203 1166.60547,174.097787 1147.30356,174.097787 C1127.88177,174.097787 1113.37536,188.004753 1112.53615,206.347562 Z M1265.39308,318.322617 L1265.39308,134.175204 L1322.33971,134.175204 L1322.33971,167.743743 L1324.25791,167.743743 C1330.97162,143.406552 1347.03656,131.657563 1367.17769,131.657563 C1376.88859,131.657563 1385.88016,134.295091 1392.95353,138.371271 L1375.68971,186.566102 C1370.53454,184.168349 1364.89982,182.010372 1357.82645,182.010372 C1339.36376,182.010372 1324.13802,196.516776 1324.01814,218.336326 L1324.01814,318.322617 L1265.39308,318.322617 Z M1491.74108,321.799358 C1433.83535,321.799358 1398.58838,285.952954 1398.58838,226.968236 C1398.58838,169.90172 1434.3149,131.777451 1489.94276,131.777451 C1542.21377,131.777451 1579.13917,165.106214 1579.13917,225.76936 L1579.13917,240.395652 L1456.37422,240.395652 L1456.37422,241.954191 C1456.37422,264.493067 1470.28119,279.479022 1492.82007,279.479022 C1508.16568,279.479022 1520.15445,272.885202 1524.71018,260.656663 L1578.53973,262.215202 C1571.82602,298.421269 1540.0558,321.799358 1491.74108,321.799358 Z M1456.37422,206.347562 L1524.59029,206.347562 C1524.35052,187.525203 1510.44355,174.097787 1491.14164,174.097787 C1471.71984,174.097787 1457.21344,188.004753 1456.37422,206.347562 Z M1667.85621,213.301045 L1667.85621,318.322617 L1609.23116,318.322617 L1609.23116,134.175204 L1664.97891,134.175204 L1664.97891,167.983518 L1667.017,167.983518 C1675.16936,145.564529 1695.79003,131.777451 1723.00453,131.777451 C1761.72823,131.777451 1787.02453,159.471495 1786.90464,200.952618 L1786.90506,318.322617 L1728.27958,318.322617 L1728.27958,212.461832 C1728.39947,192.080933 1717.36981,179.852394 1698.78722,179.852394 C1680.20464,179.852394 1667.9761,192.320708 1667.85621,213.301045 Z M1927.29327,134.175204 L1927.29327,177.334754 L1894.08439,177.334754 L1894.08439,260.416887 C1894.08439,271.326662 1899.47934,275.163067 1908.95046,275.163067 C1913.3863,275.163067 1919.2608,273.96419 1921.77844,273.364752 L1930.65012,315.685089 C1925.0154,317.363516 1914.82495,320.240819 1900.67821,320.960145 C1859.31698,322.878347 1835.09967,304.175875 1835.45934,266.89082 L1835.45934,177.334754 L1811.12215,177.334754 L1811.12215,134.175204 L1835.45934,134.175204 L1835.45934,90.0565526 L1894.08439,90.0565526 L1894.08439,134.175204 L1927.29327,134.175204 Z" id="Incoherent"></path>
        </g>
    </g>
</svg>