<?xml version="1.0" encoding="UTF-8"?>
<svg width="1250px" height="253px" viewBox="0 0 1250 253" version="1.1" xmlns="http://www.w3.org/2000/svg" xmlns:xlink="http://www.w3.org/1999/xlink">
    <!-- Generator: Sketch 53.2 (72643) - https://sketchapp.com -->
    <title>Scream</title>
    <desc>Created with Sketch.</desc>
    <g id="Page-1" stroke="none" stroke-width="1" fill="none" fill-rule="evenodd">
        <g id="Desktop" transform="translate(-395.000000, -1386.000000)" fill="#000000" fill-rule="nonzero">
            <path d="M535.036763,1463.059 C533.478224,1445.55541 520.770134,1435.12518 497.63182,1435.12518 C474.613394,1435.12518 463.10418,1444.83608 462.984293,1458.2635 C462.504742,1472.88979 476.651483,1480.32282 498.950584,1485.11833 L520.050809,1489.91383 C568.485415,1500.58383 594.980583,1524.56136 595.220358,1563.76462 C594.980583,1610.40091 558.774516,1638.09496 497.63182,1638.09496 C435.889686,1638.09496 395.967102,1610.64069 395.247777,1553.21451 L452.074517,1553.21451 C453.393281,1576.83237 470.657101,1589.06091 496.912494,1589.06091 C520.770134,1589.06091 534.796988,1578.63069 535.036763,1563.64473 C534.796988,1549.85765 522.688337,1542.54451 495.713618,1536.31035 L470.057663,1530.31597 C427.617439,1520.60507 401.481934,1499.62473 401.601822,1462.33968 C401.242159,1416.66249 441.644293,1386.09114 497.751708,1386.09114 C554.818224,1386.09114 591.383954,1417.14204 591.863504,1463.059 L535.036763,1463.059 Z M711.271805,1638.45462 C653.006413,1638.45462 618.238997,1599.73091 618.238997,1543.50361 C618.238997,1487.03653 653.246188,1448.43271 711.151917,1448.43271 C762.343939,1448.43271 795.432928,1477.92507 796.751692,1523.2426 L741.963041,1523.2426 C739.685175,1504.42024 728.7754,1493.03091 711.991131,1493.03091 C691.490345,1493.03091 677.943042,1510.41462 677.943042,1542.90417 C677.943042,1575.6335 691.370457,1593.0172 711.991131,1593.0172 C728.056075,1593.0172 739.805063,1582.3472 741.963041,1562.80552 L796.751692,1562.80552 C795.193152,1608.36282 763.063265,1638.45462 711.271805,1638.45462 Z M826.843681,1634.97788 L826.843681,1450.83046 L883.790309,1450.83046 L883.790309,1484.399 L885.708512,1484.399 C892.422219,1460.06181 908.487163,1448.31282 928.628286,1448.31282 C938.339185,1448.31282 947.330758,1450.95035 954.404129,1455.02653 L937.140309,1503.22136 C931.98514,1500.82361 926.350421,1498.66563 919.277051,1498.66563 C900.814354,1498.66563 885.588624,1513.17204 885.468736,1534.99159 L885.468736,1634.97788 L826.843681,1634.97788 Z M1053.19168,1638.45462 C995.285947,1638.45462 960.038982,1602.60821 960.038982,1543.6235 C960.038982,1486.55698 995.765498,1448.43271 1051.39336,1448.43271 C1103.66437,1448.43271 1140.58977,1481.76147 1140.58977,1542.42462 L1140.58977,1557.05091 L1017.82482,1557.05091 L1017.82482,1558.60945 C1017.82482,1581.14833 1031.73179,1596.13428 1054.27067,1596.13428 C1069.61628,1596.13428 1081.60505,1589.54046 1086.16078,1577.31192 L1139.99033,1578.87046 C1133.27662,1615.07653 1101.5064,1638.45462 1053.19168,1638.45462 Z M1017.82482,1523.00282 L1086.04089,1523.00282 C1085.80111,1504.18046 1071.89415,1490.75305 1052.59224,1490.75305 C1033.17044,1490.75305 1018.66404,1504.66001 1017.82482,1523.00282 Z M1222.5931,1638.09496 C1187.34614,1638.09496 1162.04985,1620.35158 1162.04985,1583.90574 C1162.04985,1543.14395 1193.22063,1529.35687 1230.50569,1526.23979 C1261.91625,1523.48237 1274.14479,1521.08462 1274.14479,1509.81518 L1274.14479,1509.21574 C1274.14479,1496.86732 1265.03333,1489.91383 1250.64681,1489.91383 C1235.18131,1489.91383 1225.47041,1497.10709 1222.95277,1508.85608 L1168.88344,1506.93788 C1173.55906,1473.36934 1201.61277,1448.43271 1251.12636,1448.43271 C1298.00243,1448.43271 1332.64996,1470.8517 1332.64996,1509.81518 L1332.64996,1634.97788 L1277.50164,1634.97788 L1277.50164,1609.32192 L1276.06299,1609.32192 C1265.99243,1628.14428 1248.24906,1638.09496 1222.5931,1638.09496 Z M1240.69614,1599.73091 C1259.39861,1599.73091 1274.50445,1587.50237 1274.50445,1569.51923 L1274.50445,1552.01563 C1267.91063,1555.49237 1254.48322,1557.89012 1243.57344,1559.44866 C1226.90906,1561.9663 1217.55782,1569.15956 1217.55782,1581.02844 C1217.55782,1593.25698 1227.14883,1599.73091 1240.69614,1599.73091 Z M1368.37666,1634.97788 L1368.37666,1450.83046 L1424.12441,1450.83046 L1424.12441,1484.63878 L1426.1625,1484.63878 C1433.83531,1462.21979 1453.01733,1448.43271 1478.19374,1448.43271 C1503.72981,1448.43271 1523.51127,1462.57945 1528.42666,1484.63878 L1530.34486,1484.63878 C1537.17846,1462.69934 1558.63834,1448.43271 1585.85284,1448.43271 C1620.62025,1448.43271 1644.59778,1472.05058 1644.59778,1511.01406 L1644.59778,1634.97788 L1585.97273,1634.97788 L1585.97273,1524.44147 C1585.97273,1506.09866 1575.42261,1496.14799 1560.55655,1496.14799 C1544.37172,1496.14799 1534.66082,1507.41743 1534.66082,1525.04091 L1534.66082,1634.97788 L1478.31363,1634.97788 L1478.31363,1523.84204 C1478.31363,1506.81799 1468.24306,1496.14799 1453.01733,1496.14799 C1437.67172,1496.14799 1427.00172,1507.77709 1427.00172,1526.00001 L1427.00172,1634.97788 L1368.37666,1634.97788 Z" id="Scream"></path>
        </g>
    </g>
</svg>